[
  {
    "t": 1.04,
    "type": "note_on",
    "planet": "Rocky Body",
    "midi": 58,
    "vel": 60,
    "instrument": "mallet"
  },
  {
    "t": 1.34,
    "type": "note_off",
    "planet": "Rocky Body"
  },
  {
    "t": 2.08,
    "type": "note_on",
    "planet": "Rocky Body",
    "midi": 58,
    "vel": 60,
    "instrument": "mallet"
  },
  {
    "t": 2.38,
    "type": "note_off",
    "planet": "Rocky Body"
  },
  {
    "t": 2.64,
    "type": "note_on",
    "planet": "Rocky Body 2",
    "midi": 70,
    "vel": 50,
    "instrument": "pad"
  },
  {
    "t": 3.24,
    "type": "note_off",
    "planet": "Rocky Body 2"
  },
  {
    "t": 3.12,
    "type": "note_on",
    "planet": "Rocky Body",
    "midi": 58,
    "vel": 60,
    "instrument": "mallet"
  },
  {
    "t": 3.42,
    "type": "note_off",
    "planet": "Rocky Body"
  },
  {
    "t": 4.16,
    "type": "note_on",
    "planet": "Rocky Body",
    "midi": 58,
    "vel": 60,
    "instrument": "mallet"
  },
  {
    "t": 4.46,
    "type": "note_off",
    "planet": "Rocky Body"
  },
  {
    "t": 5.2,
    "type": "note_on",
    "planet": "Rocky Body",
    "midi": 58,
    "vel": 60,
    "instrument": "mallet"
  },
  {
    "t": 5.5,
    "type": "note_off",
    "planet": "Rocky Body"
  },
  {
    "t": 5.264,
    "type": "note_on",
    "planet": "Rocky Body 2",
    "midi": 70,
    "vel": 50,
    "instrument": "pad"
  },
  {
    "t": 5.864,
    "type": "note_off",
    "planet": "Rocky Body 2"
  },
  {
    "t": 6.24,
    "type": "note_on",
    "planet": "Rocky Body",
    "midi": 58,
    "vel": 60,
    "instrument": "mallet"
  },
  {
    "t": 6.54,
    "type": "note_off",
    "planet": "Rocky Body"
  },
  {
    "t": 6.384,
    "type": "note_on",
    "planet": "Gas Giant",
    "midi": 70,
    "vel": 60,
    "instrument": "mallet"
  },
  {
    "t": 6.684,
    "type": "note_off",
    "planet": "Gas Giant"
  },
  {
    "t": 7.28,
    "type": "note_on",
    "planet": "Rocky Body",
    "midi": 58,
    "vel": 60,
    "instrument": "mallet"
  },
  {
    "t": 7.58,
    "type": "note_off",
    "planet": "Rocky Body"
  },
  {
    "t": 7.872,
    "type": "note_on",
    "planet": "Rocky Body 2",
    "midi": 70,
    "vel": 50,
    "instrument": "pad"
  },
  {
    "t": 8.472,
    "type": "note_off",
    "planet": "Rocky Body 2"
  },
  {
    "t": 8.304,
    "type": "note_on",
    "planet": "Rocky Body",
    "midi": 58,
    "vel": 60,
    "instrument": "mallet"
  },
  {
    "t": 8.604000000000001,
    "type": "note_off",
    "planet": "Rocky Body"
  },
  {
    "t": 9.344,
    "type": "note_on",
    "planet": "Rocky Body",
    "midi": 58,
    "vel": 60,
    "instrument": "mallet"
  },
  {
    "t": 9.644,
    "type": "note_off",
    "planet": "Rocky Body"
  },
  {
    "t": 10.384,
    "type": "note_on",
    "planet": "Rocky Body",
    "midi": 58,
    "vel": 60,
    "instrument": "mallet"
  },
  {
    "t": 10.684000000000001,
    "type": "note_off",
    "planet": "Rocky Body"
  },
  {
    "t": 10.496,
    "type": "note_on",
    "planet": "Rocky Body 2",
    "midi": 70,
    "vel": 50,
    "instrument": "pad"
  },
  {
    "t": 11.096,
    "type": "note_off",
    "planet": "Rocky Body 2"
  },
  {
    "t": 11.424,
    "type": "note_on",
    "planet": "Rocky Body",
    "midi": 58,
    "vel": 60,
    "instrument": "mallet"
  },
  {
    "t": 11.724,
    "type": "note_off",
    "planet": "Rocky Body"
  },
  {
    "t": 12.464,
    "type": "note_on",
    "planet": "Rocky Body",
    "midi": 58,
    "vel": 60,
    "instrument": "mallet"
  },
  {
    "t": 12.764000000000001,
    "type": "note_off",
    "planet": "Rocky Body"
  },
  {
    "t": 13.024000000000001,
    "type": "note_on",
    "planet": "Gas Giant",
    "midi": 70,
    "vel": 60,
    "instrument": "mallet"
  },
  {
    "t": 13.324000000000002,
    "type": "note_off",
    "planet": "Gas Giant"
  },
  {
    "t": 13.120000000000001,
    "type": "note_on",
    "planet": "Rocky Body 2",
    "midi": 70,
    "vel": 50,
    "instrument": "pad"
  },
  {
    "t": 13.72,
    "type": "note_off",
    "planet": "Rocky Body 2"
  },
  {
    "t": 13.504,
    "type": "note_on",
    "planet": "Rocky Body",
    "midi": 58,
    "vel": 60,
    "instrument": "mallet"
  },
  {
    "t": 13.804,
    "type": "note_off",
    "planet": "Rocky Body"
  },
  {
    "t": 14.544,
    "type": "note_on",
    "planet": "Rocky Body",
    "midi": 58,
    "vel": 60,
    "instrument": "mallet"
  },
  {
    "t": 14.844000000000001,
    "type": "note_off",
    "planet": "Rocky Body"
  },
  {
    "t": 15.584,
    "type": "note_on",
    "planet": "Rocky Body",
    "midi": 58,
    "vel": 60,
    "instrument": "mallet"
  },
  {
    "t": 15.884,
    "type": "note_off",
    "planet": "Rocky Body"
  },
  {
    "t": 15.728,
    "type": "note_on",
    "planet": "Rocky Body 2",
    "midi": 70,
    "vel": 50,
    "instrument": "pad"
  },
  {
    "t": 16.328,
    "type": "note_off",
    "planet": "Rocky Body 2"
  },
  {
    "t": 16.624,
    "type": "note_on",
    "planet": "Rocky Body",
    "midi": 58,
    "vel": 60,
    "instrument": "mallet"
  },
  {
    "t": 16.924,
    "type": "note_off",
    "planet": "Rocky Body"
  },
  {
    "t": 17.664,
    "type": "note_on",
    "planet": "Rocky Body",
    "midi": 58,
    "vel": 60,
    "instrument": "mallet"
  },
  {
    "t": 17.964000000000002,
    "type": "note_off",
    "planet": "Rocky Body"
  },
  {
    "t": 18.352,
    "type": "note_on",
    "planet": "Rocky Body 2",
    "midi": 70,
    "vel": 50,
    "instrument": "pad"
  },
  {
    "t": 18.952,
    "type": "note_off",
    "planet": "Rocky Body 2"
  },
  {
    "t": 18.704,
    "type": "note_on",
    "planet": "Rocky Body",
    "midi": 58,
    "vel": 60,
    "instrument": "mallet"
  },
  {
    "t": 19.004,
    "type": "note_off",
    "planet": "Rocky Body"
  },
  {
    "t": 19.728,
    "type": "note_on",
    "planet": "Gas Giant",
    "midi": 70,
    "vel": 60,
    "instrument": "mallet"
  },
  {
    "t": 20.028000000000002,
    "type": "note_off",
    "planet": "Gas Giant"
  },
  {
    "t": 19.744,
    "type": "note_on",
    "planet": "Rocky Body",
    "midi": 58,
    "vel": 60,
    "instrument": "mallet"
  },
  {
    "t": 20.044,
    "type": "note_off",
    "planet": "Rocky Body"
  },
  {
    "t": 20.784,
    "type": "note_on",
    "planet": "Rocky Body",
    "midi": 58,
    "vel": 60,
    "instrument": "mallet"
  },
  {
    "t": 21.084,
    "type": "note_off",
    "planet": "Rocky Body"
  },
  {
    "t": 20.96,
    "type": "note_on",
    "planet": "Rocky Body 2",
    "midi": 70,
    "vel": 50,
    "instrument": "pad"
  },
  {
    "t": 21.560000000000002,
    "type": "note_off",
    "planet": "Rocky Body 2"
  },
  {
    "t": 21.824,
    "type": "note_on",
    "planet": "Rocky Body",
    "midi": 58,
    "vel": 60,
    "instrument": "mallet"
  },
  {
    "t": 22.124000000000002,
    "type": "note_off",
    "planet": "Rocky Body"
  },
  {
    "t": 22.864,
    "type": "note_on",
    "planet": "Rocky Body",
    "midi": 58,
    "vel": 60,
    "instrument": "mallet"
  },
  {
    "t": 23.164,
    "type": "note_off",
    "planet": "Rocky Body"
  },
  {
    "t": 23.584,
    "type": "note_on",
    "planet": "Rocky Body 2",
    "midi": 70,
    "vel": 50,
    "instrument": "pad"
  },
  {
    "t": 24.184,
    "type": "note_off",
    "planet": "Rocky Body 2"
  },
  {
    "t": 23.904,
    "type": "note_on",
    "planet": "Rocky Body",
    "midi": 58,
    "vel": 60,
    "instrument": "mallet"
  },
  {
    "t": 24.204,
    "type": "note_off",
    "planet": "Rocky Body"
  },
  {
    "t": 24.944,
    "type": "note_on",
    "planet": "Rocky Body",
    "midi": 58,
    "vel": 60,
    "instrument": "mallet"
  },
  {
    "t": 25.244,
    "type": "note_off",
    "planet": "Rocky Body"
  },
  {
    "t": 25.984,
    "type": "note_on",
    "planet": "Rocky Body",
    "midi": 58,
    "vel": 60,
    "instrument": "mallet"
  },
  {
    "t": 26.284000000000002,
    "type": "note_off",
    "planet": "Rocky Body"
  },
  {
    "t": 26.192,
    "type": "note_on",
    "planet": "Rocky Body 2",
    "midi": 70,
    "vel": 50,
    "instrument": "pad"
  },
  {
    "t": 26.792,
    "type": "note_off",
    "planet": "Rocky Body 2"
  },
  {
    "t": 26.448,
    "type": "note_on",
    "planet": "Gas Giant",
    "midi": 70,
    "vel": 60,
    "instrument": "mallet"
  },
  {
    "t": 26.748,
    "type": "note_off",
    "planet": "Gas Giant"
  },
  {
    "t": 27.024,
    "type": "note_on",
    "planet": "Rocky Body",
    "midi": 58,
    "vel": 60,
    "instrument": "mallet"
  },
  {
    "t": 27.324,
    "type": "note_off",
    "planet": "Rocky Body"
  },
  {
    "t": 28.064,
    "type": "note_on",
    "planet": "Rocky Body",
    "midi": 58,
    "vel": 60,
    "instrument": "mallet"
  },
  {
    "t": 28.364,
    "type": "note_off",
    "planet": "Rocky Body"
  },
  {
    "t": 28.8,
    "type": "note_on",
    "planet": "Rocky Body 2",
    "midi": 70,
    "vel": 50,
    "instrument": "pad"
  },
  {
    "t": 29.400000000000002,
    "type": "note_off",
    "planet": "Rocky Body 2"
  },
  {
    "t": 29.088,
    "type": "note_on",
    "planet": "Rocky Body",
    "midi": 58,
    "vel": 60,
    "instrument": "mallet"
  },
  {
    "t": 29.388,
    "type": "note_off",
    "planet": "Rocky Body"
  }
]